<?xml version="1.0" encoding="UTF-8"?>
<!DOCTYPE svg PUBLIC "-//W3C//DTD SVG 1.1//EN" "http://www.w3.org/Graphics/SVG/1.1/DTD/svg11.dtd">
<!-- Creator: CorelDRAW 2018 (64 Bit Versão de avaliação) -->
<svg xmlns="http://www.w3.org/2000/svg" xml:space="preserve" width="13.963mm" height="22.561mm" version="1.1" style="shape-rendering:geometricPrecision; text-rendering:geometricPrecision; image-rendering:optimizeQuality; fill-rule:evenodd; clip-rule:evenodd"
viewBox="0 0 1396.3 2256.1"
 xmlns:xlink="http://www.w3.org/1999/xlink">
 <defs>
  <style type="text/css">
   <![CDATA[
    .fil0 {fill:#008036;fill-rule:nonzero}
   ]]>
  </style>
 </defs>
 <g id="Camada_x0020_1">
  <metadata id="CorelCorpID_0Corel-Layer"/>
  <path class="fil0" d="M1312.68 1893.92c-123.61,219.85 -362.37,361.09 -614.54,362.19 -252.17,-1.1 -490.93,-142.34 -614.54,-362.19 -69.23,-123.05 -90.55,-243.16 -81.72,-362.19 11.01,-150.78 69.97,-299.91 140.13,-451.07 1.11,-2.57 476.97,-1027.6 476.97,-1027.6 15.79,-33.98 47.2,-51.58 79.16,-53.07 31.97,1.49 63.37,19.09 79.16,53.07 0,0 475.88,1025.03 476.99,1027.6 70.16,151.16 129.1,300.29 140.13,451.07 8.81,119.03 -12.5,239.14 -81.74,362.19z"/>
 </g>
</svg>
