<?xml version="1.0" encoding="UTF-8"?>
<!DOCTYPE svg PUBLIC "-//W3C//DTD SVG 1.1//EN" "http://www.w3.org/Graphics/SVG/1.1/DTD/svg11.dtd">
<!-- Creator: CorelDRAW 2018 (64 Bit Versão de avaliação) -->
<svg xmlns="http://www.w3.org/2000/svg" xml:space="preserve" width="22.4894mm" height="26.9874mm" version="1.1" style="shape-rendering:geometricPrecision; text-rendering:geometricPrecision; image-rendering:optimizeQuality; fill-rule:evenodd; clip-rule:evenodd"
viewBox="0 0 2248.94 2698.74"
 xmlns:xlink="http://www.w3.org/1999/xlink">
 <defs>
  <style type="text/css">
   <![CDATA[
    .fil0 {fill:#008036;fill-rule:nonzero}
   ]]>
  </style>
 </defs>
 <g id="Camada_x0020_1">
  <metadata id="CorelCorpID_0Corel-Layer"/>
  <g id="_1950335606080">
   <path class="fil0" d="M1039.46 1463.29c-224.99,244.66 -812.98,502.33 -1040.65,494.98 105.65,-202.13 620.29,-588.29 943.86,-663.12 -0.2,2.38 -0.2,4.77 -0.2,7.25 0,69.76 39.35,130.38 96.99,160.89z"/>
   <path class="fil0" d="M1256.8 1302.4c0,72.95 -59.44,132.27 -132.38,132.27 -72.94,0 -132.26,-59.32 -132.26,-132.27 0,-72.94 59.32,-132.36 132.26,-132.36 72.94,0 132.38,59.42 132.38,132.36z"/>
   <path class="fil0" d="M1222.11 1148.77c-28.23,-17.99 -61.72,-28.42 -97.69,-28.42 -35.47,0 -68.57,10.14 -96.49,27.72 -97.98,-317.59 -24.05,-955.57 97.2,-1148.56 121.22,193.18 195.26,831.97 96.98,1149.26z"/>
   <path class="fil0" d="M2250.13 1958.27c-227.76,7.35 -815.76,-250.32 -1040.64,-494.98 57.73,-30.51 96.99,-91.13 96.99,-160.89 0,-2.48 0,-4.87 -0.2,-7.25 323.66,74.83 838.12,460.99 943.85,663.12z"/>
   <path class="fil0" d="M1300.77 2672.98c0,20.28 -138.33,26.26 -175.87,26.26l-0.75 0c-37.54,0 -175.99,-5.98 -175.99,-26.26l107.82 -1134.68c0,-19.15 27.28,-35.06 61.98,-36.74l6.94 -0.21c2.11,0 4.21,0.07 6.19,0.21 34.71,1.68 61.97,17.59 61.97,36.74l107.71 1134.68z"/>
  </g>
 </g>
</svg>
