<?xml version="1.0" encoding="UTF-8"?>
<!DOCTYPE svg PUBLIC "-//W3C//DTD SVG 1.1//EN" "http://www.w3.org/Graphics/SVG/1.1/DTD/svg11.dtd">
<!-- Creator: CorelDRAW 2018 (64 Bit Versão de avaliação) -->
<svg xmlns="http://www.w3.org/2000/svg" xml:space="preserve" width="15.0812mm" height="21.6958mm" version="1.1" style="shape-rendering:geometricPrecision; text-rendering:geometricPrecision; image-rendering:optimizeQuality; fill-rule:evenodd; clip-rule:evenodd"
viewBox="0 0 1508.12 2169.58"
 xmlns:xlink="http://www.w3.org/1999/xlink">
 <defs>
  <style type="text/css">
   <![CDATA[
    .fil0 {fill:#008036;fill-rule:nonzero}
   ]]>
  </style>
 </defs>
 <g id="Camada_x0020_1">
  <metadata id="CorelCorpID_0Corel-Layer"/>
  <g id="_1950327525152">
   <path class="fil0" d="M904.32 1594.02c49.15,93.31 98.87,203.41 98.87,300.05 0,41.14 -9.08,79.99 -31.13,113.88 -46.95,72.24 -138.81,119.15 -234.12,119.45 -70.4,0.19 -135.39,-23.56 -184.19,-66.99 -50.07,-44.51 -76.25,-103.14 -73.95,-165.25 2.64,-72.09 35.93,-148.31 104.71,-239.93 16.66,-22.16 36.3,-44.52 57.09,-68.17 47.54,-54.06 99.78,-113.39 122.86,-181.46 51.09,45.42 97.14,107.62 139.86,188.42z"/>
   <path class="fil0" d="M1073.43 1954.09c-62.82,96.79 -186.03,159.59 -313.83,159.99l-1.62 0.1c-94.38,0 -182.68,-32.4 -248.84,-91.23 -66.48,-59.12 -102.88,-140.51 -99.89,-223.16 3.85,-106.45 58.69,-195.94 120.88,-278.63 79.85,-106.17 179.95,-219.71 173.16,-362.94 0.48,11.12 75.06,44.72 88.93,53.77 117.89,76.91 199.79,201.13 255.15,328.23 55.29,126.96 108.7,286.54 26.06,413.87zm437.86 -503c-1.99,-46.41 -6.45,-92.93 -10.88,-139.14 -12.43,-129.95 -33.66,-258.98 -61.51,-386.51 -22.68,-103.88 -41.58,-223.49 -122.27,-300.36 -1.14,-1.09 -40.62,-41.53 -41.43,-29.5 -8.88,131.18 -55.11,247.36 -137.01,348.59 -2.3,2.88 -4.6,5.76 -7.01,8.55 -0.45,-4.28 -0.91,-8.45 -1.72,-12.72 -19.17,-128.83 -26.01,-259.59 -53.17,-388.16 -27.07,-128.08 -65.47,-253.78 -114.75,-375.06 -11.04,-27.14 -22.71,-54.26 -39.21,-78.46 -15.23,-22.29 -34.47,-43.74 -52.59,-63.55 -7.89,-8.65 -40.65,-29.47 -39.28,-41.37 -21.51,187.52 -87.72,353.12 -198.22,504.58 -41.56,56.84 -81.75,115.08 -115.4,175.7 -1.5,2.68 -5.73,2.78 -7.34,0.19 -23.58,-37.99 -51.34,-74.97 -81.31,-108.17 -23,-25.45 -48,-63.18 -80.02,-77.69 -10.6,135.65 0.58,266.77 -43.84,399.1 -20.24,60.34 -67.04,112.03 -103.95,162.6 -14.59,20.07 -29.06,40.14 -43.06,60.51 -55.01,79.8 -104.16,162.78 -133.79,252.31 -8.48,25.64 -15.27,52.57 -20.09,80.1 -4.47,26.23 -7.12,52.87 -7.57,79.5 0.33,33.29 3.55,65.98 9.41,97.88 57.3,315.2 372.62,556.18 752.93,556.18 39.16,0 78.21,-2.69 116.79,-8.05 104.95,-14.51 206.01,-48 294.89,-98.68 148.15,-84.47 265.58,-224.68 317.17,-389.44 23.43,-74.82 27.41,-151.74 24.23,-228.93z"/>
  </g>
 </g>
</svg>
