<?xml version="1.0" encoding="UTF-8"?>
<!DOCTYPE svg PUBLIC "-//W3C//DTD SVG 1.1//EN" "http://www.w3.org/Graphics/SVG/1.1/DTD/svg11.dtd">
<!-- Creator: CorelDRAW 2018 (64 Bit Versão de avaliação) -->
<svg xmlns="http://www.w3.org/2000/svg" xml:space="preserve" width="14.8166mm" height="23.5478mm" version="1.1" style="shape-rendering:geometricPrecision; text-rendering:geometricPrecision; image-rendering:optimizeQuality; fill-rule:evenodd; clip-rule:evenodd"
viewBox="0 0 1481.66 2354.78"
 xmlns:xlink="http://www.w3.org/1999/xlink">
 <defs>
  <style type="text/css">
   <![CDATA[
    .fil0 {fill:#008036;fill-rule:nonzero}
   ]]>
  </style>
 </defs>
 <g id="Camada_x0020_1">
  <metadata id="CorelCorpID_0Corel-Layer"/>
  <path class="fil0" d="M981.56 2287.6c-53.38,27.16 -109.94,48.8 -168.26,65.61l0 -427.29 357.33 -357.33c15.98,-16.11 15.98,-42.2 0,-58.2 -8,-7.99 -18.58,-12 -29.04,-12 -10.58,0 -21.17,4.01 -29.16,12l-299.13 299.13 0 -500.07 357.33 -357.45c15.98,-15.99 15.98,-42.09 0,-58.2 -8,-8 -18.58,-11.99 -29.04,-11.99 -10.58,0 -21.17,3.99 -29.16,11.99l-299.13 299.24 0 -585.9c0,-19.99 -8.11,-38.1 -21.28,-51.15 -13.06,-13.16 -31.16,-21.28 -51.15,-21.28 -39.97,0 -72.55,32.57 -72.55,72.43l0 585.78 -299.11 -299.12c-8,-8 -18.59,-11.99 -29.05,-11.99 -10.58,0 -21.17,3.99 -29.17,11.99 -15.98,16.11 -15.98,42.21 0,58.2l357.33 357.34 0 500.06 -299.11 -299.01c-8,-7.99 -18.59,-12 -29.05,-12 -10.58,0 -21.17,4.01 -29.17,12 -15.98,16 -15.98,42.09 0,58.2l357.33 357.21 0 427.41c-58.32,-16.81 -114.86,-38.57 -168.26,-65.61 -872.8,-443.05 -474.55,-1887.45 240.81,-2286.04 715.36,398.59 1113.49,1842.99 240.69,2286.04z"/>
 </g>
</svg>
