<?xml version="1.0" encoding="UTF-8"?>
<!DOCTYPE svg PUBLIC "-//W3C//DTD SVG 1.1//EN" "http://www.w3.org/Graphics/SVG/1.1/DTD/svg11.dtd">
<!-- Creator: CorelDRAW 2018 (64 Bit Versão de avaliação) -->
<svg xmlns="http://www.w3.org/2000/svg" xml:space="preserve" width="18.5208mm" height="22.4894mm" version="1.1" style="shape-rendering:geometricPrecision; text-rendering:geometricPrecision; image-rendering:optimizeQuality; fill-rule:evenodd; clip-rule:evenodd"
viewBox="0 0 1852.08 2248.94"
 xmlns:xlink="http://www.w3.org/1999/xlink">
 <defs>
  <style type="text/css">
   <![CDATA[
    .fil0 {fill:#008036;fill-rule:nonzero}
   ]]>
  </style>
 </defs>
 <g id="Camada_x0020_1">
  <metadata id="CorelCorpID_0Corel-Layer"/>
  <g id="_1950336184032">
   <path class="fil0" d="M1855.63 1034.26l0 1207.22c0,6.45 -5.26,11.72 -11.72,11.72l-190.3 0 0 -399.1c0,-8.25 -6.76,-15.02 -15.01,-15.02l-566.23 0c-8.24,0 -15.01,6.77 -15.01,15.02l0 399.1 -1017.88 0 0 -1398.71c-25.24,-11.03 -43.03,-36.28 -43.03,-65.49 0,-19.58 8.05,-37.36 20.87,-50.29 12.92,-12.82 30.71,-20.86 50.28,-20.86l367.68 0c39.27,0 71.25,32.01 71.25,71.15 0,19.58 -7.95,37.46 -20.86,50.38 -7.16,7.17 -15.9,12.82 -25.54,16.41l0 506.1 456.63 -337.08c7.85,-5.65 18.77,-0.2 18.77,9.45l0 328.82 458.23 -338.27c7.85,-5.65 18.77,-0.2 18.77,9.45l0 303.89 424.42 -313.34c7.75,-5.65 18.68,-0.2 18.68,9.45z"/>
   <path class="fil0" d="M249.74 654.07c-7.9,-19.6 -13.81,-39.49 -17.7,-60.31 -4.05,-20.81 -5.71,-42.53 -4.43,-65.18 1.49,-22.57 6.23,-45.95 15.34,-68.75 9.65,-23.86 24.33,-45.46 40.95,-63.84 33.39,-36.75 75.23,-61.39 113.96,-79.22 38.89,-17.88 75.12,-30.25 105.67,-43.55l25.03 -11 24.97 -11.09c16.43,-7.31 32.23,-14.76 47.38,-22.33 15.11,-7.52 29.75,-15.75 42.05,-23.26 12.6,-8.21 24.96,-17.51 37.06,-27.9 11.89,-10.59 23.27,-22.31 34.31,-35.06 10.6,-12.97 20.91,-26.85 30.41,-41.92 9.37,-15.11 17.85,-31.3 25.86,-48.69 7.51,-17.45 14.14,-35.99 20.64,-56.23 10.1,18.55 16.7,39.06 20.71,60.41 3.71,21.34 4.45,43.42 2.92,65.72 -2.13,22.12 -6.63,44.36 -13.71,66.1 -7.34,21.62 -17.25,42.63 -29.32,62.76 -12.42,19.9 -27.31,38.57 -44.27,55.73 -17.84,17.2 -35.32,31.12 -53.66,43.57 -18.22,12.5 -36.85,23.35 -55.37,33.22 -9.31,4.9 -18.6,9.49 -27.81,13.99l-13.88 6.43 -14.41 6.46c-41.05,17.51 -79.55,27.72 -113.2,38.17 -16.93,5.33 -32.52,10.22 -47.15,16.09 -14.72,5.74 -28.55,12.2 -41.05,19.48 -12.76,7.19 -23.77,15.51 -33.89,25.22 -10.43,10.89 -20.47,23.91 -29.28,38.89 -9.05,14.92 -16.98,31.78 -24.7,49.74 -7.72,17.95 -14.77,37.03 -23.43,56.35z"/>
  </g>
 </g>
</svg>
