<?xml version="1.0" encoding="UTF-8"?>
<!DOCTYPE svg PUBLIC "-//W3C//DTD SVG 1.1//EN" "http://www.w3.org/Graphics/SVG/1.1/DTD/svg11.dtd">
<!-- Creator: CorelDRAW 2018 (64 Bit Versão de avaliação) -->
<svg xmlns="http://www.w3.org/2000/svg" xml:space="preserve" width="11.377mm" height="24.077mm" version="1.1" style="shape-rendering:geometricPrecision; text-rendering:geometricPrecision; image-rendering:optimizeQuality; fill-rule:evenodd; clip-rule:evenodd"
viewBox="0 0 1137.7 2407.7"
 xmlns:xlink="http://www.w3.org/1999/xlink">
 <defs>
  <style type="text/css">
   <![CDATA[
    .fil0 {fill:#008036;fill-rule:nonzero}
   ]]>
  </style>
 </defs>
 <g id="Camada_x0020_1">
  <metadata id="CorelCorpID_0Corel-Layer"/>
  <g id="_1950326176224">
   <path class="fil0" d="M924.09 1783.67l-646.11 0 0 435.22c37.11,32.34 160.75,135.27 264.25,165.91l0.06 20.17c0.01,4.7 4.48,8.5 9.97,8.5l95.01 0c5.49,0 9.96,-3.8 9.97,-8.5l0.06 -21.25c123.31,-36.41 255.92,-163.45 266.79,-173.99l0 -426.06z"/>
   <path class="fil0" d="M1057.65 734.51l-886.51 326.72c-62.59,23.07 -129.85,-18.19 -149.49,-91.69l-19.66 -73.6c-19.65,-73.49 15.49,-152.49 78.07,-175.56l886.51 -326.72c62.59,-23.06 129.85,18.21 149.49,91.7l19.66 73.6c19.65,73.49 -15.49,152.49 -78.07,175.55z"/>
   <path class="fil0" d="M1057.67 1176.94c-25.91,9.56 -51.82,19.11 -77.74,28.66 -59.56,21.95 -119.13,43.91 -178.7,65.86 -66.06,24.34 -132.13,48.68 -198.19,73.03 -45.39,16.74 -90.79,33.46 -136.19,50.19 -4.14,1.52 -12.56,2.6 -15.93,5.88 -7.97,7.77 7.63,20.14 13.44,27.31 0,5.82 19.08,23.56 22.85,28.2 6.62,8.14 13.32,16.2 19.9,24.41 78.58,98.17 77.95,240.59 81.81,366.44 1.08,35.33 -28.88,25.71 -48.68,20.93 -31.9,-7.7 -64,-15.41 -94.81,-28.24 -12.42,-5.26 -24.84,-11.32 -37.96,-13.19 -9.74,-1.29 -19.48,-0.23 -29.22,-1.05 -21.57,-1.63 -41.93,-12.02 -61.81,-22.29 -1.6,-0.82 -3.07,-1.63 -4.37,-2.92 -2.38,-2.68 -2.99,-6.89 -3.48,-10.73 -8,-62.3 -27.06,-123.78 -53.97,-178.25 -15.03,-30.43 -37.66,-51.79 -62.98,-69.92 -18.7,-13.39 -39.1,-23.92 -60.72,-28.57 -6.44,-1.38 -12.93,-2.31 -19.28,-4.15 -42.59,-12.44 -75.72,-48.19 -90.04,-96.55l-19.57 -73.52c-19.69,-73.53 15.5,-152.53 78,-175.65l886.52 -326.66c62.59,-23.1 129.88,18.21 149.55,91.62l19.58 73.64c19.68,73.53 -15.51,152.54 -78.01,175.52z"/>
   <path class="fil0" d="M944.32 341.5l-635.88 234.34c-62.58,23.07 -129.84,-18.19 -149.48,-91.69l-19.67 -73.6c-19.63,-73.49 15.49,-152.49 78.08,-175.55l635.87 -234.35c62.58,-23.07 129.85,18.2 149.48,91.69l19.68 73.59c19.62,73.5 -15.51,152.51 -78.08,175.57z"/>
   <path class="fil0" d="M737.65 1435.83c3.34,-8.2 6.73,-16.36 10.16,-24.51 10.27,-24.43 22.2,-44.32 43.52,-55.82 23.19,-12.51 46.87,-18.05 70.71,-27.12 25.98,-9.88 51.97,-19.75 77.97,-29.62 8.9,-3.39 18.05,-6.82 27.39,-6.18 15.94,1.09 25.27,17.04 32.1,32.29 31.08,69.51 24.62,160.69 -15.82,222.89 -47.13,72.52 -81.24,150.3 -92.81,241.67 -0.5,3.84 -1.08,8.01 -3.48,10.69 -1.21,1.34 -2.79,2.16 -4.3,2.94 -19.87,10.27 -40.24,20.68 -61.89,22.35 -9.69,0.76 -19.46,-0.28 -29.12,1.05 -13.16,1.81 -25.56,7.9 -38.04,13.11 -30.76,12.85 -62.84,20.61 -94.82,28.33 -10.52,2.54 -21.1,5.09 -31.84,5.35 -2.4,0.05 -5.03,-0.13 -6.72,-2.09 -1.66,-1.92 -1.88,-4.93 -1.93,-7.66 -0.58,-27.97 2.67,-53.18 8.93,-80.16 27.68,-119.4 64.55,-235.87 109.99,-347.51z"/>
  </g>
 </g>
</svg>
