<?xml version="1.0" encoding="UTF-8"?>
<!DOCTYPE svg PUBLIC "-//W3C//DTD SVG 1.1//EN" "http://www.w3.org/Graphics/SVG/1.1/DTD/svg11.dtd">
<!-- Creator: CorelDRAW 2018 (64 Bit Versão de avaliação) -->
<svg xmlns="http://www.w3.org/2000/svg" xml:space="preserve" width="23.8124mm" height="19.579mm" version="1.1" style="shape-rendering:geometricPrecision; text-rendering:geometricPrecision; image-rendering:optimizeQuality; fill-rule:evenodd; clip-rule:evenodd"
viewBox="0 0 2381.24 1957.9"
 xmlns:xlink="http://www.w3.org/1999/xlink">
 <defs>
  <style type="text/css">
   <![CDATA[
    .fil0 {fill:#008036;fill-rule:nonzero}
   ]]>
  </style>
 </defs>
 <g id="Camada_x0020_1">
  <metadata id="CorelCorpID_0Corel-Layer"/>
  <g id="_1950335578784">
   <path class="fil0" d="M2274.21 1351.6c-4.67,13.23 -13.51,24.05 -24.84,31.16 -9.34,6.02 -20.38,9.35 -32,9.35l-2053.51 0c-11.56,0 -22.67,-3.33 -32.01,-9.35 -11.28,-7.11 -20.15,-17.93 -24.78,-31.16 -2.6,-7.41 -3.33,-16.66 -2.04,-26.82l149.39 -1169.4c4.26,-33.21 32.65,-58.28 66.13,-58.28l1740.11 0c33.48,0 61.91,25.07 66.18,58.28l149.36 1169.4c1.29,10.16 0.59,19.41 -1.99,26.82zm102.95 -39.68l-149.46 -1169.4c-10.63,-83.9 -82.48,-147.18 -167.04,-147.18l-1740.11 0c-84.54,0 -156.41,63.28 -167.05,147.18l-149.39 1169.4c-2.03,16.09 -1.94,31.53 0.28,46.34 5.82,39.31 19.6,75.76 40.24,109.88 12.67,21.19 27.66,40.99 44.21,59.39 10.36,11.57 21,23.13 33.68,32.29 13.5,9.81 29.78,16.46 45.31,22.3 5.19,1.47 10.37,2.86 15.55,4.24l913.17 0 -82.14 365.11c0,8.5 138.37,11.1 175.84,11.1l0.73 0c37.56,0 175.86,-2.6 175.86,-11.1l-82.06 -365.11 913.11 0c5.17,-1.38 10.34,-2.77 15.5,-4.24 39.36,-11.2 68.07,-40.15 93.12,-71.24 22.46,-27.65 41.24,-58.37 54.35,-91.48 7.56,-19.15 14.81,-40.34 16,-61.14 2.19,-14.81 2.29,-30.25 0.3,-46.34z"/>
   <path class="fil0" d="M820.63 748.37l-28.25 576.2c-0.56,11.3 -9.88,20.18 -21.21,20.18l-546.26 0c-10.91,0 -21.46,-3.15 -30.33,-8.78 -10.75,-6.57 -19.16,-16.66 -23.61,-28.96 -2.48,-6.94 -3.14,-15.54 -1.94,-24.97l70.12 -537.46c1.38,-10.57 10.39,-18.48 21.04,-18.48l539.25 0c12.13,0 21.78,10.15 21.19,22.27z"/>
   <path class="fil0" d="M849.5 170.23l-23.08 470.94c-0.55,11.3 -9.89,20.19 -21.2,20.19l-529.88 0c-12.8,0 -22.69,-11.27 -21.04,-23.97l56.73 -435.12c3.98,-30.99 30.98,-54.3 62.82,-54.3l454.45 0c12.13,0 21.78,10.15 21.2,22.26z"/>
   <path class="fil0" d="M1481.36 661.36l-568.8 0c-12.12,0 -21.79,-10.16 -21.2,-22.27l23.08 -470.94c0.55,-11.29 9.87,-20.18 21.2,-20.18l522.64 0c11.31,0 20.64,8.89 21.19,20.18l23.08 470.94c0.59,12.11 -9.07,22.27 -21.19,22.27z"/>
   <path class="fil0" d="M1515.4 1344.75l-636.88 0c-12.13,0 -21.8,-10.14 -21.2,-22.26l28.26 -576.2c0.55,-11.31 9.88,-20.19 21.2,-20.19l580.36 0c11.31,0 20.64,8.88 21.2,20.19l28.25 576.2c0.59,12.12 -9.06,22.26 -21.19,22.26z"/>
   <path class="fil0" d="M2211.7 1307.01c-4.27,12.3 -12.82,22.39 -23.55,28.96 -8.84,5.63 -19.38,8.78 -30.31,8.78l-535.1 0c-11.31,0 -20.65,-8.88 -21.2,-20.18l-28.26 -576.2c-0.6,-12.12 9.07,-22.27 21.2,-22.27l528.09 0c10.63,0 19.57,7.91 20.96,18.48l70.16 537.46c1.19,9.43 0.5,18.03 -1.99,24.97z"/>
   <path class="fil0" d="M2107.36 661.36l-518.66 0c-11.32,0 -20.65,-8.89 -21.2,-20.19l-23.09 -470.94c-0.59,-12.11 9.08,-22.26 21.21,-22.26l443.26 0c31.8,0 58.83,23.31 62.81,54.3l56.74 435.12c1.69,12.7 -8.25,23.97 -21.07,23.97z"/>
  </g>
 </g>
</svg>
