<?xml version="1.0" encoding="UTF-8"?>
<!DOCTYPE svg PUBLIC "-//W3C//DTD SVG 1.1//EN" "http://www.w3.org/Graphics/SVG/1.1/DTD/svg11.dtd">
<!-- Creator: CorelDRAW 2018 (64 Bit Versão de avaliação) -->
<svg xmlns="http://www.w3.org/2000/svg" xml:space="preserve" width="20.6374mm" height="20.6374mm" version="1.1" style="shape-rendering:geometricPrecision; text-rendering:geometricPrecision; image-rendering:optimizeQuality; fill-rule:evenodd; clip-rule:evenodd"
viewBox="0 0 2063.74 2063.74"
 xmlns:xlink="http://www.w3.org/1999/xlink">
 <defs>
  <style type="text/css">
   <![CDATA[
    .fil0 {fill:#008036;fill-rule:nonzero}
   ]]>
  </style>
 </defs>
 <g id="Camada_x0020_1">
  <metadata id="CorelCorpID_0Corel-Layer"/>
  <g id="_1950327520160">
   <path class="fil0" d="M900.9 1261.95l-289.37 497.79c-124.77,-71.43 -233.01,-175.97 -309.79,-309.95 -74.92,-130.64 -110.72,-272.98 -111.06,-413.16l573.56 1.68c1.02,42.15 12.38,84.64 34.79,123.78 25.1,43.66 60.73,77.45 101.87,99.86z"/>
   <path class="fil0" d="M1452.38 313.37l-287.2 493.78c-79.28,-48.84 -182.15,-53.86 -268.8,-4.18l-0.99 0.67 -284.03 -495.45c270.31,-155.06 590.62,-142.68 841.02,5.18z"/>
   <path class="fil0" d="M1863.69 1041.49c-2.67,287.03 -153.21,564.7 -420.34,717.75l-286.35 -499.12 1.16 -0.68c82.29,-47.17 129.3,-131.47 132.15,-219.63l573.38 1.68z"/>
   <path class="fil0" d="M1226.91 1038.41c-2.17,66.9 -37.85,130.88 -100.3,166.68l-0.89 0.51c-62.32,35.41 -135.69,33.51 -194.34,1.39 -31.23,-17.01 -58.27,-42.65 -77.32,-75.78 -17,-29.71 -25.63,-61.95 -26.4,-93.94 -1.9,-70.7 34.03,-140.27 99.53,-178.1l0.76 -0.5c65.76,-37.71 143.83,-33.89 204,3.17 27.55,16.75 51.41,40.62 68.66,70.7 19.18,33.39 27.56,70.08 26.3,105.87z"/>
   <path class="fil0" d="M1031.88 126.01c-499.52,0 -905.89,406.37 -905.89,905.87 0,499.51 406.37,905.86 905.89,905.86 499.5,0 905.87,-406.35 905.87,-905.86 0,-499.5 -406.37,-905.87 -905.87,-905.87zm0 1931.67c-565.65,0 -1025.83,-460.15 -1025.83,-1025.8 0,-565.63 460.18,-1025.82 1025.83,-1025.82 565.63,0 1025.82,460.19 1025.82,1025.82 0,565.65 -460.19,1025.8 -1025.82,1025.8z"/>
  </g>
 </g>
</svg>
