<?xml version="1.0" encoding="UTF-8"?>
<!DOCTYPE svg PUBLIC "-//W3C//DTD SVG 1.1//EN" "http://www.w3.org/Graphics/SVG/1.1/DTD/svg11.dtd">
<!-- Creator: CorelDRAW 2018 (64 Bit Versão de avaliação) -->
<svg xmlns="http://www.w3.org/2000/svg" xml:space="preserve" width="14.0228mm" height="23.5478mm" version="1.1" style="shape-rendering:geometricPrecision; text-rendering:geometricPrecision; image-rendering:optimizeQuality; fill-rule:evenodd; clip-rule:evenodd"
viewBox="0 0 1402.28 2354.78"
 xmlns:xlink="http://www.w3.org/1999/xlink">
 <defs>
  <style type="text/css">
   <![CDATA[
    .fil0 {fill:#008036;fill-rule:nonzero}
   ]]>
  </style>
 </defs>
 <g id="Camada_x0020_1">
  <metadata id="CorelCorpID_0Corel-Layer"/>
  <path class="fil0" d="M268.02 4.41l650.37 0c16.69,0 31.61,10.33 37.41,26.03l445.21 1199.74c9.66,26.06 -9.61,53.78 -37.42,53.78l-606.2 0c-28.02,0 -47.32,28.14 -37.21,54.28l369.84 957.55c16.81,43.55 -42,75.6 -69.47,37.86l-1014.08 -1392.7c-19.2,-26.38 -0.36,-63.39 32.25,-63.39l450.84 0c28.04,0 47.33,-28.15 37.21,-54.31l-295.96 -764.58c-10.12,-26.14 9.17,-54.26 37.21,-54.26z"/>
 </g>
</svg>
